HIERARCHY
ROOT root
{
	OFFSET	0	13.1	24.9
	CHANNELS 6  Xposition Yposition Zposition Xrotation Yrotation Zrotation
	JOINT spine_1
	{
		OFFSET	0	9.99999	0
		CHANNELS 3  Xrotation Yrotation Zrotation
		JOINT spine_2
		{
			OFFSET	0	112	-10
			CHANNELS 3  Xrotation Yrotation Zrotation
			JOINT spine_3
			{
				OFFSET	0	206.5	19.3
				CHANNELS 3  Xrotation Yrotation Zrotation
				JOINT spine_4
				{
					OFFSET	0	110.4	14.6
					CHANNELS 3  Xrotation Yrotation Zrotation
					JOINT neck_1
					{
						OFFSET	0	71.8	-50.3
						CHANNELS 3  Xrotation Yrotation Zrotation
						JOINT neck_2
						{
							OFFSET	0	86.2	-25.8
							CHANNELS 3  Xrotation Yrotation Zrotation
							JOINT head_ee
							{
								OFFSET	0	179.8	-8.7
								CHANNELS 3  Xrotation Yrotation Zrotation
								End Site
								{
									OFFSET	1	0	0
								}
							}
						}
					}
					JOINT left_clavicle
					{
						OFFSET	-43.2	22.4	-70.8
						CHANNELS 3  Xrotation Yrotation Zrotation
						JOINT left_shoulder
						{
							OFFSET	-93.9	-5.79999	48.7
							CHANNELS 3  Xrotation Yrotation Zrotation
							JOINT left_elbow
							{
								OFFSET	-291.4	-30.8	15.2
								CHANNELS 3  Xrotation Yrotation Zrotation
								JOINT left_lowarm_twist
								{
									OFFSET	-110.7	-3.89999	13.6
									CHANNELS 3  Xrotation Yrotation Zrotation
									JOINT left_hand
									{
										OFFSET	-110.7	-3.89999	13.6
										CHANNELS 3  Xrotation Yrotation Zrotation
										JOINT left_ee
										{
											OFFSET	-80.8	-5.10001	12.1
											CHANNELS 3  Xrotation Yrotation Zrotation
											End Site
											{
												OFFSET	1	0	0
											}
										}
									}
								}
							}
						}
					}
					JOINT right_clavicle
					{
						OFFSET	43.2	22.4	-70.8
						CHANNELS 3  Xrotation Yrotation Zrotation
						JOINT right_shoulder
						{
							OFFSET	93.9	-5.79999	48.7
							CHANNELS 3  Xrotation Yrotation Zrotation
							JOINT right_elbow
							{
								OFFSET	291.4	-30.8	15.2
								CHANNELS 3  Xrotation Yrotation Zrotation
								JOINT right_lowarm_twist
								{
									OFFSET	110.7	-3.89999	13.6
									CHANNELS 3  Xrotation Yrotation Zrotation
									JOINT right_hand
									{
										OFFSET	110.7	-3.89999	13.6
										CHANNELS 3  Xrotation Yrotation Zrotation
										JOINT right_ee
										{
											OFFSET	80.8	-5.10001	12.1
											CHANNELS 3  Xrotation Yrotation Zrotation
											End Site
											{
												OFFSET	1	0	0
											}
										}
									}
								}
							}
						}
					}
				}
			}
		}
	}
	JOINT left_hip
	{
		OFFSET	-82.8	-127.5	0.300001
		CHANNELS 3  Xrotation Yrotation Zrotation
		JOINT left_knee
		{
			OFFSET	-28.2	-396.7	2.2
			CHANNELS 3  Xrotation Yrotation Zrotation
			JOINT left_ankle
			{
				OFFSET	-11.7	-411.3	35.4
				CHANNELS 3  Xrotation Yrotation Zrotation
				JOINT left_toes
				{
					OFFSET	0	-60	-88.6
					CHANNELS 3  Xrotation Yrotation Zrotation
					JOINT left_foot_ee
					{
						OFFSET	-22.5	-16.5	-42.2
						CHANNELS 3  Xrotation Yrotation Zrotation
						End Site
						{
							OFFSET	1	0	0
						}
					}
				}
			}
		}
	}
	JOINT right_hip
	{
		OFFSET	82.8	-127.5	0.300001
		CHANNELS 3  Xrotation Yrotation Zrotation
		JOINT right_knee
		{
			OFFSET	28.2	-396.7	2.2
			CHANNELS 3  Xrotation Yrotation Zrotation
			JOINT right_ankle
			{
				OFFSET	11.7	-411.3	35.4
				CHANNELS 3  Xrotation Yrotation Zrotation
				JOINT right_toes
				{
					OFFSET	0	-60	-88.6
					CHANNELS 3  Xrotation Yrotation Zrotation
					JOINT right_foot_ee
					{
						OFFSET	22.5	-16.5	-42.2
						CHANNELS 3  Xrotation Yrotation Zrotation
						End Site
						{
							OFFSET	1	0	0
						}
					}
				}
			}
		}
	}
}
MOTION
Frames: 9
Frame Time: 0.02
3574.42 741.953 -1474.73 -176.846860813 76.2223181205 179.078018879 0.0313767 0.245785 0.0908769 0.0313493 0.239504 0.106333 0.0317949 0.211892 0.154177 0.031838 0.233582 0.118778 -13.8412 5.38277 -0.295016 -13.9213 10.4446 1.4058 -0.0 0.0 -0.0 2.59269 18.3884 6.07723 3.60545 -31.1265 67.4526 0.819623 -22.0978 0.160048 21.5368 0.249583 -2.72365 -3.25144 25.7515 -8.03955 -0.0 0.0 -0.0 5.55607 14.4271 -10.0721 -11.6288 7.25437 -67.1836 1.743 40.8047 -0.648339 -15.4978 0.795978 -1.8087 -0.867152 -7.60975 2.45933 0.0 0.0 0.0 -2.66808 52.5001 -4.14974 3.58817 -0.164305 -0.525949 21.2843 -24.7987 -3.39657 -19.8512 0.0 0.0 -0.0 0.0 -0.0 3.74155 35.6703 -0.981257 -7.59148 -0.237318 -1.14005 39.4124 3.08208 4.85486 -24.9056 0.0 0.0 0.0 0.0 0.0 
3574.89592038 742.909 -1472.0629423 -178.402834935 78.0300106549 -179.138462581 -0.0612605 0.155544 0.0818002 -0.0612693 0.150023 0.0915321 -0.0610263 0.127306 0.121154 -0.0610175 0.144842 0.0995282 -14.5141 5.60014 0.247604 -14.6043 10.5486 2.05273 -0.0 0.0 -0.0 2.47404 18.5742 5.90542 4.40751 -32.3623 67.7401 0.92883 -24.7075 0.203435 21.9528 0.244267 -2.77652 -3.06617 24.7999 -7.52814 -0.0 0.0 -0.0 5.91762 14.7574 -10.8222 -12.5445 7.08361 -67.5401 1.61272 38.6182 -0.565088 -15.3137 0.783698 -1.78859 -0.878484 -7.76633 2.46423 0.0 0.0 0.0 -2.25628 52.0074 -4.9238 2.90607 -0.130535 -0.42676 21.821 -25.5689 -3.50065 -19.8422 0.0 0.0 -0.0 0.0 -0.0 3.29337 35.703 -1.24521 -7.41383 -0.233499 -1.11305 39.0402 2.50175 4.81555 -25.8858 0.0 0.0 0.0 0.0 0.0 
3573.09899986 745.148 -1471.06304232 -179.038764465 80.0096934451 -178.403458841 -0.0998125 0.0777551 0.0410274 -0.0998147 0.0749868 0.045892 -0.0997541 0.0635609 0.0607381 -0.0997518 0.0723556 0.0499376 -15.0337 5.79018 0.817779 -15.1291 10.5902 2.70319 -0.0 0.0 -0.0 2.41631 18.7931 5.82829 4.59331 -33.2309 67.4691 1.00783 -26.5301 0.237598 22.244 0.240317 -2.81351 -2.91467 24.1109 -7.04368 -0.0 0.0 -0.0 6.08019 14.9294 -11.1588 -13.5248 7.04715 -67.8031 1.52587 37.0821 -0.511793 -15.1733 0.774373 -1.77322 -0.866138 -7.7762 2.37982 0.0 0.0 0.0 -2.22002 51.6262 -5.3639 2.19827 -0.0967461 -0.323423 21.6652 -26.0558 -3.49782 -19.8447 0.0 0.0 -0.0 0.0 -0.0 2.94539 35.7263 -1.47112 -7.14392 -0.227537 -1.07206 38.5796 1.95323 4.76893 -26.6817 0.0 0.0 0.0 0.0 0.0 
3572.93280162 748.006 -1469.05399137 179.183588393 82.5191437029 -176.69275273 -0.245435 -0.0317503 -0.0273138 -0.245435 -0.0299479 -0.0292788 -0.245419 -0.0229755 -0.0350179 -0.24542 -0.0282175 -0.0309499 -15.4682 5.92893 1.21802 -15.5675 10.6389 3.16881 -0.0 0.0 -0.0 2.37429 18.9142 5.77072 5.38665 -34.0621 67.9732 1.07771 -28.0955 0.269665 22.4414 0.237533 -2.83857 -2.80567 23.5939 -6.69849 -0.0 0.0 -0.0 6.10396 15.0899 -11.199 -14.4121 6.91454 -67.9552 1.44878 35.6643 -0.466072 -15.0616 0.766985 -1.76098 -0.858249 -7.79275 2.3214 0.0 0.0 0.0 -2.26738 51.3727 -5.64166 2.05605 -0.0901115 -0.302611 21.3991 -26.3826 -3.47314 -19.8872 0.0 0.0 -0.0 0.0 -0.0 2.69695 35.7632 -1.61394 -7.15968 -0.227891 -1.07445 38.217 1.58218 4.73279 -27.2653 0.0 0.0 0.0 0.0 0.0 
3573.1575038 743.957 -1466.57335729 175.859080642 85.4190751478 -173.107271454 -0.212778 -0.118958 -0.245337 -0.21275 -0.103106 -0.25241 -0.212267 -0.0467581 -0.268617 -0.212357 -0.0885942 -0.257862 -15.5748 6.03609 1.35474 -15.677 10.7693 3.34477 -0.0 0.0 -0.0 2.42146 18.9874 5.8451 5.62471 -34.5564 67.9428 1.1161 -28.9365 0.28799 22.6077 0.235121 -2.85967 -2.69798 23.0786 -6.35292 -0.0 0.0 -0.0 6.29563 15.5051 -11.5826 -14.5794 6.87715 -67.9491 1.39666 34.6761 -0.436049 -14.9956 0.76263 -1.75374 -0.85296 -7.79224 2.28733 0.0 0.0 0.0 -2.32738 51.2193 -5.80539 1.31625 -0.0564353 -0.194093 21.4074 -26.5578 -3.48131 -19.8785 0.0 0.0 -0.0 0.0 -0.0 2.61522 35.7772 -2.00528 -7.58286 -0.237134 -1.13874 37.8791 1.3106 4.69973 -27.7625 0.0 0.0 0.0 0.0 0.0 
3575.16910123 745.137 -1462.6112583 159.392727783 87.9812341094 -156.486190649 -0.2309 -0.156718 -0.422319 -0.23081 -0.129527 -0.431435 -0.229758 -0.0341577 -0.449162 -0.230024 -0.104665 -0.438131 -15.8649 6.11505 1.73209 -15.9662 10.7164 3.75477 -0.0 0.0 -0.0 2.50219 18.9503 5.96482 5.95455 -34.9976 68.3464 1.15336 -29.74 0.306248 22.7013 0.233736 -2.87155 -2.63287 22.8165 -6.1145 -0.0 0.0 -0.0 5.92597 15.7452 -10.7716 -15.5223 6.54906 -67.5014 1.35456 33.8602 -0.412342 -14.8754 0.754721 -1.74054 -0.837669 -7.78831 2.18988 0.0 0.0 0.0 -2.62497 51.0843 -5.83862 1.34372 -0.0576605 -0.19813 21.3127 -26.8245 -3.47855 -19.8863 0.0 0.0 -0.0 0.0 -0.0 2.44695 35.8147 -1.73655 -7.62009 -0.237925 -1.1444 37.6868 1.13481 4.68066 -28.202 0.0 0.0 0.0 0.0 0.0 
3570.70099281 744.296 -1460.95908422 51.5492180412 89.1914670144 -48.5317659523 -0.27767 -0.182829 -0.598177 -0.277482 -0.144395 -0.608598 -0.275803 -0.0102502 -0.625409 -0.276332 -0.108891 -0.615941 -15.8625 5.69424 2.63922 -15.926 9.38471 4.45581 -0.0 0.0 -0.0 2.31465 18.9256 5.68156 6.77113 -36.2757 69.1378 1.24706 -31.7047 0.354126 23.1149 0.227384 -2.924 -2.3824 21.4926 -5.34051 -0.0 0.0 -0.0 6.07568 15.8085 -11.0888 -16.8145 5.8801 -66.9499 1.15097 29.689 -0.305066 -14.6564 0.740385 -1.71646 -0.717597 -6.9712 1.76537 0.0 0.0 0.0 -2.54686 51.1841 -5.83457 1.22934 -0.0525712 -0.181316 22.1001 -26.5068 -3.57716 -19.7952 0.0 0.0 -0.0 0.0 -0.0 2.31398 37.2815 -1.50276 -7.69229 -0.239447 -1.15537 36.8773 1.17519 4.60669 -29.7625 0.0 0.0 0.0 0.0 0.0 
3549.45054809 732.299 -1455.39599958 -5.83453159125 80.3634397466 7.21916218233 -0.312783 -0.141082 -0.891707 -0.312344 -0.0840569 -0.898876 -0.310752 0.111609 -0.895873 -0.311871 -0.0312719 -0.902256 -11.5536 5.40988 4.94492 -11.5099 7.02355 6.23967 -0.0 0.0 -0.0 2.25491 19.0393 5.59752 4.09276 -36.1943 70.4945 1.36996 -34.1605 0.420957 24.9591 0.19446 -3.15727 -1.42272 14.2951 -3.00514 -0.0 0.0 -0.0 6.97453 17.7418 -12.8948 -20.2205 3.119 -63.4803 0.415454 11.6295 -0.0423085 -16.5247 0.865658 -1.92016 -0.784311 -9.16194 1.24674 0.0 0.0 0.0 -5.19995 50.5081 -0.849855 0.237181 -0.0098391 -0.0350674 23.6571 -24.0658 -3.69379 -20.88 0.0 0.0 -0.0 0.0 -0.0 8.18072 31.9818 -1.63342 -15.3402 -0.322027 -2.32508 35.9768 -1.13431 4.50501 -32.4382 0.0 0.0 0.0 0.0 0.0 
3532.32390176 729.449 -1474.10003731 -6.4398121336 81.4189117544 7.24027424966 -0.4226 0.0182451 -0.917353 -0.422135 0.0765792 -0.914333 -0.423141 0.27354 -0.875814 -0.424188 0.131794 -0.90802 -8.59966 6.14198 8.47105 -8.4106 5.57028 9.72405 -0.0 0.0 -0.0 1.14473 23.3292 4.27122 0.549734 -35.068 70.5809 1.54583 -37.4408 0.523878 24.3125 0.206858 -3.0756 -1.18835 13.4318 -1.93176 -0.0 0.0 -0.0 7.54506 18.3978 -14.0908 -18.1671 1.54019 -63.9828 0.362002 10.1667 -0.0322019 -14.9992 0.76287 -1.75414 -0.954295 -13.885 0.267731 0.0 0.0 0.0 -4.58078 48.7395 -2.26652 -1.34562 0.053063 0.199683 21.4382 -22.8031 -3.3482 -21.1902 0.0 0.0 -0.0 0.0 -0.0 7.43242 28.2807 -2.2806 -17.7696 -0.315518 -2.69775 40.2538 -4.95689 4.87969 -32.6194 0.0 0.0 0.0 0.0 0.0 
